<svg aria-hidden="true" style="position: absolute; width: 0; height: 0; overflow: hidden;" version="1.1" xmlns="http://www.w3.org/2000/svg" xmlns:xlink="http://www.w3.org/1999/xlink">
<defs>
<symbol id="icon-chevron-down" viewBox="0 0 43 32">
<path fill="none" stroke="currentColor" style="stroke: var(--color1, currentColor)" stroke-linejoin="round" stroke-linecap="round" stroke-miterlimit="4" stroke-width="8" d="M4.219 8l16 16 16-16"></path>
</symbol>
<symbol id="icon-burger-menu" viewBox="0 0 50 32">
<path fill="#274c5b" style="fill: var(--color1, #274c5b)" d="M2.286 4.571h45.714c1.257 0 2.286-1.029 2.286-2.286s-1.029-2.286-2.286-2.286h-45.714c-1.257 0-2.286 1.029-2.286 2.286s1.029 2.286 2.286 2.286z"></path>
<path fill="#274c5b" style="fill: var(--color1, #274c5b)" d="M48 13.714h-45.714c-1.257 0-2.286 1.029-2.286 2.286s1.029 2.286 2.286 2.286h45.714c1.257 0 2.286-1.029 2.286-2.286s-1.029-2.286-2.286-2.286z"></path>
<path fill="#274c5b" style="fill: var(--color1, #274c5b)" d="M48 27.429h-45.714c-1.257 0-2.286 1.029-2.286 2.286s1.029 2.286 2.286 2.286h45.714c1.257 0 2.286-1.029 2.286-2.286s-1.029-2.286-2.286-2.286z"></path>
</symbol>
<symbol id="icon-close" viewBox="0 0 32 32">
<path fill="#274c5b" style="fill: var(--color1, #274c5b)" d="M19.223 16l12.091-12.091c0.891-0.891 0.891-2.331 0-3.223s-2.331-0.891-3.223 0l-12.091 12.091-12.091-12.114c-0.891-0.891-2.331-0.891-3.223 0s-0.891 2.331 0 3.223l12.091 12.114-12.091 12.091c-0.891 0.891-0.891 2.331 0 3.223 0.434 0.457 1.006 0.686 1.6 0.686s1.166-0.229 1.623-0.663l12.091-12.114 12.091 12.091c0.457 0.457 1.029 0.686 1.623 0.686s1.166-0.229 1.623-0.663c0.891-0.891 0.891-2.331 0-3.223l-12.114-12.114z"></path>
</symbol>
<symbol id="icon-chevron-right" viewBox="0 0 20 32">
<path fill="none" stroke="#fff" style="stroke: var(--color2, #fff)" stroke-linejoin="round" stroke-linecap="round" stroke-miterlimit="4" stroke-width="3.6923" d="M2.462 29.538l13.538-13.538-13.538-13.538"></path>
</symbol>
<symbol id="icon-pinterest" viewBox="0 0 30 32">
<path fill="#274c5b" style="fill: var(--color1, #274c5b)" d="M14.928 1.091c-8.244 0-14.928 6.681-14.928 14.922 0 6.108 3.679 11.358 8.937 13.669-0.040-1.039-0.007-2.291 0.26-3.424 0.287-1.212 1.919-8.133 1.919-8.133s-0.48-0.953-0.48-2.358c0-2.212 1.28-3.864 2.879-3.864 1.36 0 2.013 1.019 2.013 2.238 0 1.366-0.873 3.404-1.32 5.296-0.373 1.585 0.793 2.871 2.359 2.871 2.826 0 4.732-3.63 4.732-7.934 0-3.271-2.206-5.715-6.211-5.715-4.525 0-7.351 3.377-7.351 7.148 0 1.299 0.387 2.218 0.986 2.924 0.273 0.326 0.313 0.46 0.213 0.833-0.073 0.273-0.233 0.933-0.307 1.199-0.1 0.38-0.407 0.513-0.746 0.373-2.086-0.853-3.059-3.131-3.059-5.702 0-4.237 3.579-9.319 10.67-9.319 5.698 0 9.45 4.123 9.45 8.547 0 5.855-3.259 10.225-8.057 10.225-1.613 0-3.126-0.873-3.645-1.859 0 0-0.866 3.437-1.053 4.103-0.313 1.152-0.933 2.298-1.499 3.197 1.374 0.405 2.799 0.612 4.232 0.613 8.244 0 14.928-6.681 14.928-14.921s-6.678-14.928-14.922-14.928z"></path>
</symbol>
<symbol id="icon-twitter" viewBox="0 0 37 32">
<path fill="#274c5b" style="fill: var(--color1, #274c5b)" d="M36.729 4.754c-1.378 0.599-2.836 0.993-4.327 1.171 1.568-0.918 2.747-2.376 3.316-4.101-1.482 0.867-3.101 1.475-4.787 1.798-0.71-0.744-1.564-1.336-2.51-1.74s-1.964-0.611-2.993-0.609c-4.164 0-7.534 3.321-7.534 7.415-0.003 0.569 0.062 1.137 0.194 1.691-2.986-0.14-5.91-0.902-8.585-2.236s-5.041-3.213-6.949-5.515c-0.669 1.128-1.023 2.415-1.025 3.726 0 2.571 1.341 4.844 3.367 6.175-1.2-0.028-2.375-0.346-3.427-0.926v0.092c0 3.596 2.602 6.588 6.045 7.269-0.648 0.173-1.315 0.26-1.985 0.26-0.476 0.001-0.95-0.045-1.416-0.138 0.957 2.946 3.743 5.089 7.044 5.15-2.682 2.067-5.974 3.184-9.36 3.176-0.601-0.001-1.201-0.037-1.798-0.107 3.444 2.199 7.448 3.363 11.534 3.352 13.878 0 21.459-11.302 21.459-21.104 0-0.321-0.009-0.643-0.024-0.956 1.472-1.047 2.745-2.348 3.759-3.841z"></path>
</symbol>
<symbol id="icon-facebook" viewBox="0 0 32 32">
<path fill="#274c5b" style="fill: var(--color1, #274c5b)" d="M30.852 16c0-8.203-6.907-14.855-15.426-14.855s-15.426 6.652-15.426 14.855c0 7.414 5.64 13.56 13.016 14.675v-10.38h-3.918v-4.295h3.918v-3.273c0-3.722 2.304-5.78 5.827-5.78 1.688 0 3.454 0.29 3.454 0.29v3.656h-1.946c-1.915 0-2.514 1.145-2.514 2.321v2.785h4.278l-0.683 4.295h-3.594v10.381c7.376-1.115 13.016-7.26 13.016-14.677z"></path>
</symbol>
<symbol id="icon-instagram" viewBox="0 0 32 32">
<path fill="#274c5b" style="fill: var(--color1, #274c5b)" d="M21.854 3.621c1.703 0.005 3.335 0.659 4.54 1.818s1.883 2.731 1.888 4.372v12.379c-0.005 1.64-0.684 3.212-1.888 4.372s-2.836 1.814-4.54 1.818h-12.855c-1.703-0.005-3.335-0.659-4.54-1.818s-1.883-2.731-1.888-4.372v-12.379c0.005-1.64 0.684-3.212 1.888-4.372s2.836-1.814 4.54-1.818h12.855zM21.854 1.145h-12.855c-4.949 0-8.999 3.899-8.999 8.666v12.379c0 4.766 4.049 8.666 8.999 8.666h12.855c4.95 0 8.999-3.9 8.999-8.666v-12.379c0-4.766-4.049-8.666-8.999-8.666z"></path>
<path fill="#274c5b" style="fill: var(--color1, #274c5b)" d="M23.782 9.812c-0.381 0-0.754-0.109-1.071-0.313s-0.564-0.494-0.71-0.833c-0.146-0.339-0.184-0.713-0.11-1.073s0.258-0.691 0.528-0.951c0.27-0.26 0.613-0.437 0.987-0.508s0.762-0.035 1.114 0.106c0.352 0.141 0.653 0.379 0.865 0.684s0.325 0.664 0.325 1.032c0 0.244-0.049 0.486-0.146 0.711s-0.239 0.43-0.418 0.603c-0.179 0.173-0.392 0.309-0.626 0.402s-0.485 0.141-0.739 0.14zM15.426 11.050c1.017 0 2.011 0.29 2.857 0.835s1.505 1.317 1.894 2.222c0.389 0.905 0.491 1.901 0.293 2.861s-0.688 1.843-1.407 2.536c-0.719 0.692-1.635 1.164-2.633 1.355s-2.031 0.093-2.971-0.282c-0.94-0.375-1.743-1.010-2.308-1.824s-0.867-1.772-0.867-2.751c0.001-1.313 0.544-2.572 1.508-3.5s2.271-1.45 3.635-1.452zM15.426 8.574c-1.526 0-3.017 0.436-4.285 1.252s-2.257 1.976-2.841 3.333c-0.584 1.357-0.737 2.851-0.439 4.291s1.032 2.764 2.111 3.803c1.079 1.039 2.453 1.746 3.949 2.033s3.047 0.14 4.456-0.423c1.409-0.562 2.614-1.514 3.462-2.736s1.3-2.657 1.3-4.127c0-1.97-0.813-3.859-2.259-5.252s-3.408-2.175-5.454-2.175z"></path>
</symbol>
<symbol id="icon-user" viewBox="0 0 29 32">
<path fill="#efd372" style="fill: var(--color3, #efd372)" d="M19.706 2.327c-1.347-1.501-3.229-2.327-5.306-2.327-2.088 0-3.976 0.821-5.317 2.313-1.356 1.508-2.016 3.557-1.861 5.77 0.307 4.366 3.527 7.917 7.178 7.917s6.865-3.551 7.177-7.916c0.157-2.193-0.508-4.238-1.871-5.757zM26.584 32h-24.369c-0.319 0.004-0.635-0.065-0.925-0.202s-0.546-0.34-0.751-0.593c-0.45-0.555-0.631-1.313-0.497-2.079 0.584-3.344 2.408-6.154 5.274-8.126 2.546-1.751 5.772-2.714 9.083-2.714s6.537 0.964 9.083 2.714c2.866 1.972 4.689 4.781 5.274 8.125 0.134 0.766-0.047 1.524-0.497 2.079-0.204 0.253-0.461 0.455-0.751 0.593s-0.606 0.207-0.925 0.203z"></path>
</symbol>
<symbol id="icon-star" viewBox="0 0 34 32">
<path fill="#ffa858" style="fill: var(--color4, #ffa858)" d="M15.101 2.5c0.703-2.066 3.624-2.066 4.328 0l2.248 6.604c0.315 0.926 1.185 1.549 2.164 1.549h7.040c2.24 0 3.143 2.887 1.303 4.164l-5.51 3.822c-0.838 0.582-1.19 1.649-0.861 2.615l2.147 6.309c0.71 2.087-1.655 3.871-3.466 2.615l-5.926-4.11c-0.783-0.544-1.822-0.544-2.605 0l-5.926 4.11c-1.812 1.257-4.177-0.527-3.466-2.615l2.147-6.309c0.329-0.966-0.023-2.033-0.861-2.615l-5.51-3.822c-1.841-1.277-0.937-4.164 1.303-4.164h7.040c0.979 0 1.848-0.623 2.164-1.549l2.248-6.604z"></path>
</symbol>
<symbol id="icon-btn-arrow" viewBox="0 0 32 32">
<path fill="#335b6b" style="fill: var(--color5, #335b6b)" d="M32 16c0 8.837-7.163 16-16 16s-16-7.163-16-16c0-8.837 7.163-16 16-16s16 7.163 16 16z"></path>
<path fill="none" stroke="#fff" style="stroke: var(--color2, #fff)" stroke-linejoin="round" stroke-linecap="round" stroke-miterlimit="4" stroke-width="1.6842" d="M15.959 10.322l5.717 5.161-5.717 5.161M20.883 15.484h-11.593"></path>
</symbol>
<symbol id="icon-logo" viewBox="0 0 22 32">
<path fill="none" stroke="#7eb693" style="stroke: var(--color6, #7eb693)" stroke-linejoin="miter" stroke-linecap="butt" stroke-miterlimit="10" stroke-width="1.1429" d="M1.057 24.039h19.932"></path>
<path fill="none" stroke="#7eb693" style="stroke: var(--color6, #7eb693)" stroke-linejoin="miter" stroke-linecap="butt" stroke-miterlimit="10" stroke-width="1.1429" d="M3.309 27.714h15.429"></path>
<path fill="none" stroke="#7eb693" style="stroke: var(--color6, #7eb693)" stroke-linejoin="miter" stroke-linecap="butt" stroke-miterlimit="10" stroke-width="1.1429" d="M10.738 0.857v8"></path>
<path fill="none" stroke="#7eb693" style="stroke: var(--color6, #7eb693)" stroke-linejoin="miter" stroke-linecap="butt" stroke-miterlimit="10" stroke-width="1.1429" d="M10.78 8.448v15.104"></path>
<path fill="none" stroke="#7eb693" style="stroke: var(--color6, #7eb693)" stroke-linejoin="miter" stroke-linecap="butt" stroke-miterlimit="10" stroke-width="1.1429" d="M17.1 2.602l-6.32 6.334"></path>
<path fill="none" stroke="#7eb693" style="stroke: var(--color6, #7eb693)" stroke-linejoin="miter" stroke-linecap="butt" stroke-miterlimit="10" stroke-width="1.1429" d="M19.531 5.038l-8.751 8.77"></path>
<path fill="none" stroke="#7eb693" style="stroke: var(--color6, #7eb693)" stroke-linejoin="miter" stroke-linecap="butt" stroke-miterlimit="10" stroke-width="1.1429" d="M20.989 8.935l-10.209 9.744"></path>
<path fill="none" stroke="#7eb693" style="stroke: var(--color6, #7eb693)" stroke-linejoin="miter" stroke-linecap="butt" stroke-miterlimit="10" stroke-width="1.1429" d="M21.476 13.32l-10.695 10.719"></path>
<path fill="none" stroke="#7eb693" style="stroke: var(--color6, #7eb693)" stroke-linejoin="miter" stroke-linecap="butt" stroke-miterlimit="10" stroke-width="1.1429" d="M21.475 18.192l-5.834 5.847"></path>
<path fill="none" stroke="#7eb693" style="stroke: var(--color6, #7eb693)" stroke-linejoin="miter" stroke-linecap="butt" stroke-miterlimit="10" stroke-width="1.1429" d="M0.571 18.192l5.834 5.847"></path>
<path fill="none" stroke="#7eb693" style="stroke: var(--color6, #7eb693)" stroke-linejoin="miter" stroke-linecap="butt" stroke-miterlimit="10" stroke-width="1.1429" d="M4.947 2.602l5.834 6.334"></path>
<path fill="none" stroke="#7eb693" style="stroke: var(--color6, #7eb693)" stroke-linejoin="miter" stroke-linecap="butt" stroke-miterlimit="10" stroke-width="1.1429" d="M2.516 5.038l8.264 8.77"></path>
<path fill="none" stroke="#7eb693" style="stroke: var(--color6, #7eb693)" stroke-linejoin="miter" stroke-linecap="butt" stroke-miterlimit="10" stroke-width="1.1429" d="M1.057 8.448l9.723 10.232"></path>
<path fill="none" stroke="#7eb693" style="stroke: var(--color6, #7eb693)" stroke-linejoin="miter" stroke-linecap="butt" stroke-miterlimit="10" stroke-width="1.1429" d="M0.571 12.833l10.209 10.719"></path>
<path fill="none" stroke="#7eb693" style="stroke: var(--color6, #7eb693)" stroke-linejoin="miter" stroke-linecap="butt" stroke-miterlimit="10" stroke-width="1.1429" d="M11.023 31.347c-5.772 0-10.452-4.83-10.452-10.789v-9.117c0-5.958 4.68-10.789 10.452-10.789 5.773 0 10.452 4.831 10.452 10.789v9.117c0.001 5.959-4.679 10.789-10.452 10.789z"></path>
</symbol>
<symbol id="icon-cart" viewBox="0 0 36 32">
<path fill="#fff" style="fill: var(--color2, #fff); stroke: var(--color2, #fff)" stroke="#fff" stroke-linejoin="round" stroke-linecap="round" stroke-miterlimit="4" stroke-width="2" d="M15.425 30.667c0.9 0 1.63-0.73 1.63-1.63s-0.73-1.63-1.63-1.63c-0.9 0-1.63 0.73-1.63 1.63s0.73 1.63 1.63 1.63z"></path>
<path fill="#fff" style="fill: var(--color2, #fff); stroke: var(--color2, #fff)" stroke="#fff" stroke-linejoin="round" stroke-linecap="round" stroke-miterlimit="4" stroke-width="2" d="M26.833 30.667c0.9 0 1.63-0.73 1.63-1.63s-0.73-1.63-1.63-1.63c-0.9 0-1.63 0.73-1.63 1.63s0.73 1.63 1.63 1.63z"></path>
<path fill="none" stroke="#fff" style="stroke: var(--color2, #fff)" stroke-linejoin="round" stroke-linecap="round" stroke-miterlimit="4" stroke-width="2.6667" d="M2.388 1.333h5.043l3.782 21.431h20.17"></path>
<path fill="none" stroke="#fff" style="stroke: var(--color2, #fff)" stroke-linejoin="round" stroke-linecap="round" stroke-miterlimit="4" stroke-width="2.6667" d="M10.536 17.578l20.33 0.143c0.146 0 0.287-0.050 0.4-0.143s0.19-0.221 0.219-0.364l2.269-11.346c0.018-0.091 0.016-0.186-0.007-0.276s-0.065-0.175-0.124-0.247-0.134-0.13-0.218-0.17c-0.084-0.040-0.177-0.061-0.27-0.060h-24.657"></path>
</symbol>
<symbol id="icon-search" viewBox="0 0 34 32">
<path fill="#fafafa" style="fill: var(--color7, #fafafa)" d="M32.715 28.788l-7.254-7.254c1.746-2.325 2.689-5.155 2.686-8.063 0-7.428-6.043-13.471-13.471-13.471s-13.471 6.043-13.471 13.471c0 7.428 6.043 13.471 13.471 13.471 2.908 0.003 5.738-0.94 8.063-2.686l7.254 7.254c0.367 0.328 0.846 0.503 1.338 0.49s0.961-0.215 1.309-0.564c0.348-0.348 0.55-0.817 0.564-1.309s-0.161-0.971-0.49-1.338zM5.054 13.471c0-1.903 0.564-3.763 1.622-5.346s2.56-2.816 4.318-3.544c1.758-0.728 3.693-0.919 5.559-0.548s3.581 1.288 4.926 2.633 2.262 3.060 2.633 4.927c0.371 1.866 0.181 3.801-0.547 5.559s-1.961 3.261-3.544 4.318c-1.582 1.057-3.443 1.622-5.346 1.622-2.551-0.003-4.997-1.018-6.8-2.822s-2.819-4.249-2.822-6.8z"></path>
</symbol>
</defs>
</svg>
